<svg xmlns="http://www.w3.org/2000/svg" xmlns:xlink="http://www.w3.org/1999/xlink" width="500" height="250" viewBox="0 0 500 250"><defs><linearGradient id="a" x1="0.624" y1="0.024" x2="0" y2="1" gradientUnits="objectBoundingBox"><stop offset="0" stop-color="#5d5d5d"/><stop offset="1" stop-color="#131313"/></linearGradient><linearGradient id="b" x1="0.105" y1="2.594" x2="1.241" y2="0.317" gradientUnits="objectBoundingBox"><stop offset="0" stop-color="#30509a"/><stop offset="1" stop-color="#402a2a"/></linearGradient><linearGradient id="c" x1="0.125" y1="3.139" x2="1.158" y2="0.87" xlink:href="#b"/><clipPath id="f"><rect width="500" height="250"/></clipPath></defs><g id="e" clip-path="url(#f)"><rect width="500" height="250" fill="#fff"/><g transform="translate(0 -122.673)"><g transform="translate(48.118 169)"><g transform="translate(26.765)" fill="url(#a)"><path d="M 60 77.94036865234375 L 0.09174319356679916 38.99998474121094 L 60 0.05963307246565819 L 119.9082565307617 39 L 60 77.94036865234375 Z" stroke="none"/><path d="M 60 0.1192626953125 L 0.1834869384765625 38.99998474121094 L 60 77.8807373046875 L 119.8165130615234 39 L 60 0.1192626953125 M 60 0 L 120 39 L 60 78 L 0 38.99998474121094 L 60 0 Z" stroke="none" fill="#fefefe"/></g><path d="M220.5,169" transform="translate(-192.241 -133.341)" fill="none" stroke="#fefefe" stroke-width="0.1"/><g transform="translate(55.735 22.211) rotate(60)" fill="url(#b)"><path d="M 54.53878021240234 64.30007171630859 L 0.10320695489645 32.87167739868164 L 61.93052673339844 0.05715984106063843 L 118.7770843505859 32.87755966186523 L 54.53878021240234 64.30007171630859 Z" stroke="none"/><path d="M 61.92950057983398 0.1142959594726562 L 0.2063522338867188 32.87351226806641 L 54.54069519042969 64.24346160888672 L 118.6707458496094 32.8739013671875 L 61.92950057983398 0.1142959594726562 M 61.93154525756836 7.62939453125e-06 L 118.8833923339844 32.88120651245117 L 54.53680419921875 64.35668182373047 L -7.62939453125e-06 32.86983489990234 L 61.93154525756836 7.62939453125e-06 Z" stroke="none" fill="#fefefe"/></g><g transform="translate(172.908 53.904) rotate(120)" fill="url(#c)"><path d="M 62.16801452636719 63.87898635864258 L 0.104311503469944 30.91628265380859 L 55.0994758605957 0.05638331174850464 L 118.9369659423828 31.02637481689453 L 62.16801452636719 63.87898635864258 Z" stroke="none"/><path d="M 62.16698455810547 63.82181167602539 L 118.8304290771484 31.03025817871094 L 55.10117721557617 0.1127777919173241 L 0.2086651921272278 30.91507530212402 L 62.16698455810547 63.82181167602539 M 62.16906356811523 63.93614959716797 L 1.372352016915102e-06 30.91748809814453 L 55.09780120849609 -4.031841399410041e-06 L 119.0435104370117 31.02248764038086 L 62.16906356811523 63.93614959716797 Z" stroke="none" fill="#fefefe"/></g><g transform="translate(55.735 22.211) rotate(60)" fill="url(#b)"><path d="M 54.53878021240234 64.30007171630859 L 0.10320695489645 32.87167739868164 L 61.93052673339844 0.05715984106063843 L 118.7770843505859 32.87755966186523 L 54.53878021240234 64.30007171630859 Z" stroke="none"/><path d="M 61.92950057983398 0.1142959594726562 L 0.2063522338867188 32.87351226806641 L 54.54069519042969 64.24346160888672 L 118.6707458496094 32.8739013671875 L 61.92950057983398 0.1142959594726562 M 61.93154525756836 7.62939453125e-06 L 118.8833923339844 32.88120651245117 L 54.53680419921875 64.35668182373047 L -7.62939453125e-06 32.86983489990234 L 61.93154525756836 7.62939453125e-06 Z" stroke="none" fill="#fefefe"/></g></g><text transform="translate(225.882 259)" fill="#2b2b2b" font-size="38" font-family="Montserrat" font-weight="800"><tspan x="0" y="0">devCharles</tspan></text></g></g></svg>